<?xml version="1.0" encoding="utf-8"?>
<svg xmlns="http://www.w3.org/2000/svg" viewBox="4.977 3.429 500 484.849" width="500px" height="484.849px"><g id="object-2"><path d="M 338.011 99.385 C 375.565 97.332 386.188 118.572 388.76 130.867 C 392.444 148.472 385.439 171.758 357.762 177.16 L 289.435 188.529 L 287.894 346.438 C 288.394 384.302 242.357 404.683 204.15 404.683 C 165.943 404.683 137.37 367.875 137.37 336.012 C 137.37 304.149 165.943 278.341 204.15 278.341 C 212.224 278.341 220.01 279.494 227.219 281.656 L 227.219 127.861 C 227.219 117.048 234.716 107.677 245.313 105.369 L 338.011 99.385 Z" style="stroke-width: 1;" id="object-0"/><path d="M 262.553 64.035 C 362.932 64.035 444.371 145.475 444.371 245.853 C 444.371 346.232 362.932 427.672 262.553 427.672 C 200.811 427.672 146.171 396.895 113.311 349.736 C 103.746 336.005 84.807 332.691 71.076 342.255 C 57.345 351.819 54.03 370.759 63.595 384.49 C 107.345 447.179 180.167 488.278 262.553 488.278 C 396.455 488.278 504.977 379.755 504.977 245.853 C 504.977 111.952 396.455 3.429 262.553 3.429 C 181.398 3.429 109.617 43.297 65.583 104.471 L 65.583 79.187 C 65.583 62.425 52.042 48.884 35.28 48.884 C 18.519 48.884 4.977 62.425 4.977 79.187 L 4.977 185.247 C 4.977 202.009 18.519 215.55 35.28 215.55 L 58.576 215.55 C 59.049 215.55 59.523 215.55 59.996 215.55 L 141.436 215.55 C 158.197 215.55 171.739 202.009 171.739 185.247 C 171.739 168.486 158.197 154.944 141.436 154.944 L 105.167 154.944 C 136.511 100.588 195.318 64.035 262.553 64.035 Z" style="stroke-width: 0.947; transform-box: fill-box; transform-origin: 50% 50%;" id="object-1"/></g></svg>